<svg xmlns="http://www.w3.org/2000/svg" width="400" height="400" viewBox="0 0 400 400" role="img" aria-label="Cykani logo">
  <title>Cykani</title>
  <defs>
    <radialGradient id="g" cx="50%" cy="50%" r="60%">
      <stop offset="0%" stop-color="#1a1c22"/>
      <stop offset="100%" stop-color="#08090b"/>
    </radialGradient>
  </defs>
  <rect width="400" height="400" fill="url(#g)"/>
  <!-- pixel "cy" mark in dark gray -->
  <g fill="#3a3d45" opacity="0.6">
    <!-- C -->
    <rect x="80" y="100" width="20" height="20" rx="2"/>
    <rect x="100" y="100" width="20" height="20" rx="2"/>
    <rect x="120" y="100" width="20" height="20" rx="2"/>
    <rect x="140" y="100" width="20" height="20" rx="2"/>
    <rect x="60" y="120" width="20" height="20" rx="2"/>
    <rect x="60" y="140" width="20" height="20" rx="2"/>
    <rect x="60" y="160" width="20" height="20" rx="2"/>
    <rect x="60" y="180" width="20" height="20" rx="2"/>
    <rect x="60" y="200" width="20" height="20" rx="2"/>
    <rect x="60" y="220" width="20" height="20" rx="2"/>
    <rect x="80" y="240" width="20" height="20" rx="2"/>
    <rect x="100" y="240" width="20" height="20" rx="2"/>
    <rect x="120" y="240" width="20" height="20" rx="2"/>
    <rect x="140" y="240" width="20" height="20" rx="2"/>
    <!-- Y -->
    <rect x="200" y="100" width="20" height="20" rx="2"/>
    <rect x="280" y="100" width="20" height="20" rx="2"/>
    <rect x="220" y="120" width="20" height="20" rx="2"/>
    <rect x="260" y="120" width="20" height="20" rx="2"/>
    <rect x="240" y="140" width="20" height="20" rx="2"/>
    <rect x="240" y="160" width="20" height="20" rx="2"/>
    <rect x="240" y="180" width="20" height="20" rx="2"/>
    <rect x="240" y="200" width="20" height="20" rx="2"/>
    <rect x="240" y="220" width="20" height="20" rx="2"/>
    <rect x="240" y="240" width="20" height="20" rx="2"/>
  </g>
</svg>
